<?xml version="1.0" encoding="UTF-8" standalone="no"?>
<!DOCTYPE svg PUBLIC "-//W3C//DTD SVG 20010904//EN"
              "http://www.w3.org/TR/2001/REC-SVG-20010904/DTD/svg10.dtd">

<svg xmlns="http://www.w3.org/2000/svg"
     width="33.4296in" height="12.5211in"
     viewBox="0 0 5014 1878">
	<defs>
		<linearGradient id="gradient" x1="0%" y1="0%" x2="100%" y2="100%">
		  <stop offset="50%" stop-color="#06ba00" />
		  <stop offset="100%" stop-color="#af00d9" />
		</linearGradient>
	 </defs>
  <path id="Selection"
        fill="url(#gradient)"
        d="M 519.00,0.00
           C 519.00,0.00 962.00,0.00 962.00,0.00
             962.00,0.00 953.15,34.00 953.15,34.00
             953.15,34.00 932.15,110.00 932.15,110.00
             932.15,110.00 867.42,344.00 867.42,344.00
             867.42,344.00 775.15,678.00 775.15,678.00
             775.15,678.00 769.85,701.00 769.85,701.00
             769.85,701.00 730.42,843.00 730.42,843.00
             730.42,843.00 695.00,971.00 695.00,971.00
             695.00,971.00 1490.00,971.00 1490.00,971.00
             1490.00,971.00 1722.00,971.00 1722.00,971.00
             1722.00,971.00 1790.00,971.00 1790.00,971.00
             1796.38,971.00 1815.13,970.07 1820.00,972.00
             1807.76,973.92 1787.94,984.91 1778.00,992.37
             1728.83,1029.31 1710.88,1096.65 1739.26,1152.00
             1750.14,1173.24 1766.68,1191.59 1787.00,1204.19
             1787.00,1204.19 1815.00,1218.00 1815.00,1218.00
             1815.00,1218.00 1483.00,1218.00 1483.00,1218.00
             1483.00,1218.00 1531.42,1393.00 1531.42,1393.00
             1531.42,1393.00 1606.15,1663.00 1606.15,1663.00
             1606.15,1663.00 1647.15,1811.00 1647.15,1811.00
             1647.15,1811.00 1659.88,1857.00 1659.88,1857.00
             1659.88,1857.00 1665.00,1878.00 1665.00,1878.00
             1665.00,1878.00 1220.00,1878.00 1220.00,1878.00
             1220.00,1878.00 1203.42,1818.00 1203.42,1818.00
             1203.42,1818.00 1172.42,1706.00 1172.42,1706.00
             1172.42,1706.00 1087.58,1399.00 1087.58,1399.00
             1087.58,1399.00 1056.58,1287.00 1056.58,1287.00
             1056.58,1287.00 1038.00,1218.00 1038.00,1218.00
             1038.00,1218.00 182.00,1218.00 182.00,1218.00
             182.00,1218.00 204.42,1137.00 204.42,1137.00
             204.42,1137.00 248.42,978.00 248.42,978.00
             248.42,978.00 395.42,447.00 395.42,447.00
             395.42,447.00 478.42,147.00 478.42,147.00
             478.42,147.00 504.42,53.00 504.42,53.00
             504.42,53.00 514.42,17.00 514.42,17.00
             514.42,17.00 519.00,0.00 519.00,0.00 Z
           M 963.00,950.00
           C 963.00,950.00 952.42,911.00 952.42,911.00
             952.42,911.00 934.42,846.00 934.42,846.00
             934.42,846.00 875.85,634.00 875.85,634.00
             875.85,634.00 854.29,556.00 854.29,556.00
             854.29,556.00 847.29,531.00 847.29,531.00
             847.29,531.00 843.27,515.00 843.27,515.00
             843.07,510.79 849.07,491.40 850.58,486.00
             850.58,486.00 866.85,427.00 866.85,427.00
             866.85,427.00 924.12,220.00 924.12,220.00
             924.12,220.00 970.85,51.00 970.85,51.00
             970.85,51.00 981.29,13.00 981.29,13.00
             984.74,0.98 983.97,0.12 991.00,0.00
             991.00,0.00 1138.00,0.00 1138.00,0.00
             1140.42,0.00 1144.14,-0.42 1145.86,1.57
             1147.43,3.38 1149.63,13.14 1150.42,16.00
             1150.42,16.00 1160.42,52.00 1160.42,52.00
             1160.42,52.00 1207.71,223.00 1207.71,223.00
             1207.71,223.00 1254.42,392.00 1254.42,392.00
             1254.42,392.00 1355.58,757.00 1355.58,757.00
             1355.58,757.00 1409.00,950.00 1409.00,950.00
             1409.00,950.00 963.00,950.00 963.00,950.00 Z
           M 4415.00,961.00
           C 4415.00,961.00 4617.00,961.00 4617.00,961.00
             4617.00,961.00 4617.00,1381.00 4617.00,1381.00
             4629.94,1367.94 4641.70,1354.36 4656.00,1342.61
             4673.91,1327.90 4694.07,1317.66 4716.00,1310.35
             4734.33,1304.25 4766.69,1299.03 4786.00,1299.00
             4786.00,1299.00 4813.00,1299.00 4813.00,1299.00
             4813.00,1299.00 4825.00,1299.91 4825.00,1299.91
             4872.13,1303.36 4915.28,1319.40 4951.00,1350.85
             4951.00,1350.85 4960.91,1360.00 4960.91,1360.00
             4995.39,1396.85 5012.42,1450.09 5013.00,1500.00
             5013.00,1500.00 5014.00,1515.00 5014.00,1515.00
             5014.00,1515.00 5014.00,1878.00 5014.00,1878.00
             5014.00,1878.00 4812.00,1878.00 4812.00,1878.00
             4812.00,1878.00 4812.00,1578.00 4812.00,1578.00
             4812.00,1578.00 4811.00,1559.00 4811.00,1559.00
             4810.81,1543.08 4805.77,1513.08 4798.63,1499.00
             4785.00,1472.13 4755.94,1458.22 4727.00,1456.74
             4727.00,1456.74 4719.00,1456.74 4719.00,1456.74
             4703.47,1457.50 4693.77,1458.47 4679.00,1464.45
             4639.34,1480.52 4620.89,1516.21 4617.91,1557.00
             4617.91,1557.00 4617.00,1569.00 4617.00,1569.00
             4617.00,1569.00 4617.00,1878.00 4617.00,1878.00
             4617.00,1878.00 4415.00,1878.00 4415.00,1878.00
             4415.00,1878.00 4415.00,961.00 4415.00,961.00 Z
           M 1841.00,989.21
           C 1841.00,989.21 1859.00,989.21 1859.00,989.21
             1869.72,989.02 1880.94,991.40 1891.00,995.05
             1957.14,1019.09 1981.59,1101.55 1940.36,1158.00
             1931.58,1170.02 1921.73,1179.11 1909.00,1186.80
             1897.38,1193.81 1882.49,1199.05 1869.00,1200.71
             1831.99,1205.28 1795.44,1192.24 1771.46,1163.00
             1732.70,1115.71 1742.34,1040.82 1794.00,1006.86
             1810.02,996.33 1822.21,992.26 1841.00,989.21 Z
           M 2847.00,1141.00
           C 2847.00,1141.00 3049.00,1141.00 3049.00,1141.00
             3049.00,1141.00 3049.00,1312.00 3049.00,1312.00
             3049.00,1312.00 3163.00,1312.00 3163.00,1312.00
             3163.00,1312.00 3163.00,1476.00 3163.00,1476.00
             3163.00,1476.00 3049.00,1476.00 3049.00,1476.00
             3049.00,1476.00 3049.00,1878.00 3049.00,1878.00
             3049.00,1878.00 2847.00,1878.00 2847.00,1878.00
             2847.00,1878.00 2847.00,1476.00 2847.00,1476.00
             2847.00,1476.00 2781.00,1476.00 2781.00,1476.00
             2781.00,1476.00 2781.00,1312.00 2781.00,1312.00
             2781.00,1312.00 2847.00,1312.00 2847.00,1312.00
             2847.00,1312.00 2847.00,1141.00 2847.00,1141.00 Z
           M 176.00,1239.00
           C 176.00,1239.00 621.00,1239.00 621.00,1239.00
             621.00,1239.00 580.58,1385.00 580.58,1385.00
             580.58,1385.00 515.42,1620.00 515.42,1620.00
             515.42,1620.00 485.29,1729.00 485.29,1729.00
             485.29,1729.00 453.71,1843.00 453.71,1843.00
             453.71,1843.00 447.14,1867.00 447.14,1867.00
             447.14,1867.00 443.28,1877.01 443.28,1877.01
             443.28,1877.01 436.00,1878.00 436.00,1878.00
             436.00,1878.00 0.00,1878.00 0.00,1878.00
             0.00,1878.00 13.85,1826.00 13.85,1826.00
             13.85,1826.00 44.58,1715.00 44.58,1715.00
             44.58,1715.00 129.42,1408.00 129.42,1408.00
             129.42,1408.00 160.42,1296.00 160.42,1296.00
             160.42,1296.00 170.42,1260.00 170.42,1260.00
             170.42,1260.00 176.00,1239.00 176.00,1239.00 Z
           M 2292.00,1381.00
           C 2292.00,1381.00 2321.00,1351.17 2321.00,1351.17
             2339.40,1334.53 2356.77,1323.19 2380.00,1314.42
             2400.64,1306.63 2432.97,1300.03 2455.00,1300.00
             2455.00,1300.00 2477.00,1299.01 2477.00,1299.01
             2477.00,1299.01 2490.00,1300.00 2490.00,1300.00
             2501.74,1300.05 2513.45,1301.49 2525.00,1303.58
             2574.59,1312.52 2619.54,1335.68 2649.85,1377.00
             2671.21,1406.13 2681.91,1441.50 2686.15,1477.00
             2686.15,1477.00 2688.00,1497.00 2688.00,1497.00
             2688.00,1497.00 2688.00,1507.00 2688.00,1507.00
             2688.00,1507.00 2689.00,1522.00 2689.00,1522.00
             2689.00,1522.00 2689.00,1878.00 2689.00,1878.00
             2689.00,1878.00 2487.00,1878.00 2487.00,1878.00
             2487.00,1878.00 2487.00,1580.00 2487.00,1580.00
             2487.00,1580.00 2486.00,1562.00 2486.00,1562.00
             2486.00,1562.00 2483.42,1536.00 2483.42,1536.00
             2480.07,1513.43 2476.66,1498.78 2460.00,1482.00
             2455.36,1477.33 2451.64,1473.94 2446.00,1470.46
             2437.82,1465.41 2432.18,1463.16 2423.00,1460.58
             2412.94,1457.75 2402.41,1456.88 2392.00,1457.00
             2361.06,1457.37 2326.59,1474.92 2309.70,1501.00
             2298.18,1518.78 2292.03,1546.92 2292.00,1568.00
             2292.00,1568.00 2292.00,1878.00 2292.00,1878.00
             2292.00,1878.00 2090.00,1878.00 2090.00,1878.00
             2090.00,1878.00 2090.00,1312.00 2090.00,1312.00
             2090.00,1312.00 2292.00,1312.00 2292.00,1312.00
             2292.00,1312.00 2292.00,1381.00 2292.00,1381.00 Z
           M 3793.00,1695.00
           C 3789.39,1710.83 3778.11,1737.57 3770.31,1752.00
             3762.04,1767.29 3752.82,1782.21 3740.91,1795.00
             3697.93,1841.15 3641.95,1866.37 3580.00,1874.72
             3553.04,1878.35 3526.17,1878.31 3499.00,1878.00
             3499.00,1878.00 3476.00,1876.17 3476.00,1876.17
             3420.04,1870.57 3368.11,1855.58 3322.00,1822.26
             3311.56,1814.71 3302.09,1806.09 3293.00,1797.00
             3248.66,1752.66 3223.49,1698.17 3216.84,1636.00
             3216.84,1636.00 3215.00,1617.00 3215.00,1617.00
             3214.74,1594.64 3214.52,1572.20 3217.29,1550.00
             3224.16,1494.86 3245.64,1440.55 3283.17,1399.00
             3294.28,1386.70 3309.56,1372.46 3323.00,1362.74
             3364.86,1332.50 3415.13,1317.76 3466.00,1312.83
             3466.00,1312.83 3489.00,1311.00 3489.00,1311.00
             3489.00,1311.00 3532.00,1311.00 3532.00,1311.00
             3532.00,1311.00 3542.00,1311.91 3542.00,1311.91
             3542.00,1311.91 3563.00,1313.85 3563.00,1313.85
             3625.72,1321.34 3682.29,1345.18 3725.91,1392.00
             3767.35,1436.48 3790.46,1496.25 3797.72,1556.00
             3800.59,1579.64 3800.00,1603.21 3800.00,1627.00
             3800.00,1627.00 3406.00,1627.00 3406.00,1627.00
             3406.00,1654.46 3411.97,1685.74 3428.90,1708.00
             3447.64,1732.64 3480.64,1744.95 3511.00,1745.00
             3511.00,1745.00 3529.00,1745.00 3529.00,1745.00
             3537.47,1744.90 3548.99,1742.16 3557.00,1739.31
             3574.04,1733.24 3583.45,1725.85 3595.99,1713.00
             3609.64,1699.01 3605.33,1695.03 3618.00,1695.00
             3618.00,1695.00 3793.00,1695.00 3793.00,1695.00 Z
           M 1753.00,1312.00
           C 1753.00,1312.00 1954.00,1312.00 1954.00,1312.00
             1954.00,1312.00 1954.00,1878.00 1954.00,1878.00
             1954.00,1878.00 1753.00,1878.00 1753.00,1878.00
             1753.00,1878.00 1753.00,1312.00 1753.00,1312.00 Z
           M 4306.00,1851.00
           C 4306.00,1851.00 4278.00,1862.58 4278.00,1862.58
             4261.63,1868.75 4228.12,1877.80 4211.00,1878.00
             4211.00,1878.00 4150.00,1878.00 4150.00,1878.00
             4139.21,1877.98 4117.86,1874.55 4107.00,1872.21
             4067.24,1863.64 4036.76,1850.76 4003.00,1828.00
             3979.23,1811.98 3956.38,1788.82 3939.13,1766.00
             3905.82,1721.93 3887.69,1672.96 3883.91,1618.00
             3883.91,1618.00 3883.00,1606.00 3883.00,1606.00
             3883.00,1606.00 3883.00,1587.00 3883.00,1587.00
             3883.00,1587.00 3883.91,1575.00 3883.91,1575.00
             3886.09,1543.25 3892.95,1512.21 3905.86,1483.00
             3925.70,1438.12 3957.84,1398.74 3997.00,1369.37
             4021.64,1350.90 4049.64,1337.15 4079.00,1328.02
             4102.03,1320.87 4125.99,1316.59 4150.00,1314.91
             4150.00,1314.91 4160.00,1314.00 4160.00,1314.00
             4160.00,1314.00 4172.00,1314.00 4172.00,1314.00
             4172.00,1314.00 4182.00,1313.18 4182.00,1313.18
             4182.00,1313.18 4194.00,1314.00 4194.00,1314.00
             4213.96,1314.03 4234.75,1317.64 4254.00,1322.85
             4267.51,1326.51 4279.18,1330.85 4292.00,1336.42
             4304.39,1341.81 4305.98,1341.78 4306.00,1351.00
             4306.00,1351.00 4306.00,1504.00 4306.00,1504.00
             4306.00,1504.00 4283.00,1490.31 4283.00,1490.31
             4263.21,1479.60 4236.76,1469.27 4214.00,1469.00
             4214.00,1469.00 4202.00,1469.00 4202.00,1469.00
             4195.74,1469.01 4190.15,1469.90 4184.00,1470.92
             4153.04,1476.05 4127.47,1490.64 4107.46,1515.00
             4090.80,1535.28 4080.04,1563.63 4080.00,1590.00
             4080.00,1590.00 4080.00,1605.00 4080.00,1605.00
             4080.13,1615.91 4084.35,1635.87 4088.45,1646.00
             4100.07,1674.68 4122.22,1698.20 4150.00,1711.74
             4171.31,1722.13 4191.71,1724.27 4215.00,1724.00
             4234.69,1723.77 4261.66,1714.36 4279.00,1705.22
             4279.00,1705.22 4306.00,1690.00 4306.00,1690.00
             4306.00,1690.00 4306.00,1851.00 4306.00,1851.00 Z
           M 3624.00,1519.00
           C 3616.95,1494.69 3609.61,1471.76 3590.00,1454.17
             3552.49,1420.53 3479.78,1421.98 3443.00,1456.09
             3430.18,1467.98 3420.77,1483.24 3415.72,1500.00
             3415.72,1500.00 3411.00,1519.00 3411.00,1519.00
             3411.00,1519.00 3624.00,1519.00 3624.00,1519.00 Z" />
</svg>
